<?xml version="1.0" encoding="utf-8"?>
<!-- Generator: Adobe Illustrator 26.0.2, SVG Export Plug-In . SVG Version: 6.00 Build 0)  -->
<svg version="1.1" id="Capa_1" xmlns="http://www.w3.org/2000/svg" xmlns:xlink="http://www.w3.org/1999/xlink" x="0px" y="0px"
	 viewBox="0 0 147.4 249.4" style="enable-background:new 0 0 147.4 249.4;" xml:space="preserve">
<style type="text/css">
	.st0{fill:#FFFFFF;}
	.st1{fill:#948118;}
</style>
<g>
	<path class="st0" d="M23.7,23.7h-1v1v200v1h1h100h1v-1v-200v-1h-1H23.7z M123.7,224.7h-100v-35.4h100V224.7z M123.7,188.3h-100
		v-53.6h100V188.3z M123.7,24.7v38.2h-2.4l-5.1-15.6l-5.1,15.6H94.8l13.2,9.6L103,88.1l13.2-9.6l7.5,5.4v49.8h-100v-13.4l5-3.6
		l9.5,6.9l-3.6-11.1l9.5-6.9H32.3l-3.6-11.1L25,105.6h-1.3V75.1l4.2,3l-2.3,7.1l6-4.4l6,4.4l-2.3-7.1l6-4.3l-7.4,0l-2.3-7.1
		l-2.3,7.1l-5.6,0v-49H123.7z"/>
	<path class="st1" d="M23.7,24.7v49l5.6,0l2.3-7.1l2.3,7.1l7.4,0l-6,4.3l2.3,7.1l-6-4.4l-6,4.4l2.3-7.1l-4.2-3v30.4H25l3.6-11.1
		l3.6,11.1H44l-9.5,6.9l3.6,11.1l-9.5-6.9l-5,3.6v13.4h100V83.9l-7.5-5.4L103,88.1l5.1-15.6l-13.2-9.6h16.4l5.1-15.6l5.1,15.6h2.4
		V24.7H23.7z M108.3,118.4l2.6-8l2.6,8h8.4l-6.8,4.9l2.6,8l-6.8-4.9l-6.8,4.9l2.6-8l-6.8-4.9H108.3z M45.7,41.2h52.1v12.9H60.4v19.6
		H96v12H60.4v19.7h37.4v12.9H45.7V41.2z M92.6,103.4l-5.3-3.8l-5.3,3.8l2-6.2l-5.3-3.8h6.5l2-6.2l2,6.2h6.5l-5.3,3.8L92.6,103.4z
		 M34.1,35l1.9-5.8l1.9,5.8l6.1,0l-5,3.6l1.9,5.8L36,40.8L31,44.4l1.9-5.8L28,35L34.1,35z"/>
	<g>
		<path class="st1" d="M80.3,176.8c-0.3-0.2-0.7-0.2-1.4-0.2h-0.9v2.9h1c0.5,0,1,0,1.4-0.3c0.3-0.2,0.5-0.6,0.5-1.1
			C81,177.3,80.6,176.9,80.3,176.8"/>
		<path class="st1" d="M95.5,173h-0.8v6.4h0.8c0.6,0,1.5-0.1,2.3-0.7c0.6-0.5,1.1-1.3,1.1-2.4C98.8,174.3,97.5,173,95.5,173"/>
		<path class="st1" d="M95.9,162.2c0,2.1,1.6,3.7,3.7,3.7c2,0,3.7-1.6,3.7-3.7s-1.6-3.7-3.7-3.7C97.6,158.5,95.9,160.1,95.9,162.2"
			/>
		<polygon class="st1" points="76.2,163.2 79.2,163.2 77.7,159.6 		"/>
		<polygon class="st1" points="110.9,145.4 109.2,149.3 112.5,149.3 		"/>
		<path class="st1" d="M110.6,173h-0.8v6.4h0.8c0.6,0,1.5-0.1,2.3-0.7c0.6-0.5,1.1-1.3,1.1-2.4C114,174.3,112.6,173,110.6,173"/>
		<polygon class="st1" points="102.8,177.1 105.5,177.1 104.1,173.9 		"/>
		<path class="st1" d="M80.3,174.4c0-1.3-1.3-1.4-1.6-1.4h-0.7v2.7h0.7C79.2,175.7,80.3,175.6,80.3,174.4"/>
		<path class="st1" d="M42.5,172.9c-1.8,0-3.3,1.5-3.3,3.3s1.5,3.3,3.3,3.3c1.8,0,3.3-1.5,3.3-3.3S44.3,172.9,42.5,172.9"/>
		<path class="st1" d="M23.7,188.3h100v-53.6h-100V188.3z M37.1,166.7h-1v-9.4l7,7.4v-7h1v9.4l-7-7.4V166.7z M42.5,180.4
			c-2.3,0-4.2-1.8-4.2-4.2c0-2.4,1.9-4.2,4.2-4.2c2.3,0,4.2,1.8,4.2,4.2C46.7,178.6,44.8,180.4,42.5,180.4 M50.4,180.4
			c-0.5,0-1.2-0.1-1.7-0.7c-0.4-0.4-0.6-0.9-0.7-1.4l0.9-0.2c0.1,0.4,0.3,0.8,0.5,1c0.3,0.4,0.7,0.4,1.2,0.4c1.1,0,1.6-0.8,1.6-1.6
			c0-0.4-0.1-0.7-0.4-0.9c-0.2-0.2-0.5-0.4-1-0.6l-0.7-0.3c-0.3-0.1-0.7-0.3-1.1-0.7c-0.4-0.3-0.6-0.7-0.6-1.3c0-1.2,1-2.1,2.3-2.1
			c0.5,0,0.9,0.1,1.3,0.4c0.3,0.2,0.6,0.5,0.8,0.9l-0.7,0.5c-0.1-0.2-0.3-0.5-0.5-0.6c-0.2-0.1-0.4-0.3-0.9-0.3
			c-0.8,0-1.3,0.5-1.3,1.2c0,0.3,0.1,0.5,0.3,0.7c0.2,0.2,0.5,0.4,0.8,0.5l0.8,0.3c0.5,0.2,0.9,0.4,1.2,0.8c0.4,0.4,0.6,0.9,0.6,1.5
			C52.9,179.4,51.8,180.4,50.4,180.4 M58,173h-2v7.2h-0.9V173h-2v-0.8H58V173z M63.3,173h-3.3v2.4h3.2v0.8h-3.2v3.1h3.3v0.8h-4.2v-8
			h4.2V173z M72.1,180.6l-6.3-6.6v6.2H65v-8.4l6.3,6.6v-6.2h0.9V180.6z M75.1,180.2h-0.9v-8h0.9V180.2z M74.7,166.7h-1.1l4.1-9.4
			l4,9.4h-1.1l-1.1-2.5h-3.8L74.7,166.7z M81.1,179.7c-0.6,0.5-1.4,0.5-1.9,0.5h-2v-8h1.4c0.4,0,1.3,0,1.8,0.5
			c0.3,0.2,0.7,0.7,0.7,1.7c0,0.4-0.1,1.1-0.8,1.6c1.1,0.3,1.5,1.3,1.5,2C81.9,178.7,81.5,179.4,81.1,179.7 M84.4,180.2h-0.9v-8h0.9
			V180.2z M89.6,180.2h-3.1v-8h0.9v7.2h2.2V180.2z M98.4,179.3c-0.7,0.6-1.5,0.9-2.9,0.9h-1.6v-8h1.6c0.8,0,2,0.1,3,0.9
			c0.7,0.6,1.4,1.6,1.4,3.1C99.8,177.9,98.9,178.8,98.4,179.3 M106.8,180.2l-0.9-2.3h-3.4l-1,2.3h-1l3.7-8.4l3.6,8.4H106.8z
			 M113.5,179.3c-0.7,0.6-1.5,0.9-2.9,0.9h-1.6v-8h1.6c0.8,0,2,0.1,3,0.9c0.7,0.6,1.4,1.6,1.4,3.1
			C114.9,177.9,114,178.8,113.5,179.3 M110.9,142.8l4.4,10.4h-1.2l-1.2-2.8h-4.2l-1.2,2.8h-1.2L110.9,142.8z M106.3,157.3l7,7.4v-7
			h1v9.4l-7-7.4v7h-1V157.3z M103.1,143.3h1.1v9.9h-1.1V143.3z M104.3,162.2c0,2.7-2.1,4.7-4.7,4.7c-2.6,0-4.7-2-4.7-4.7
			c0-2.7,2.1-4.7,4.7-4.7C102.2,157.5,104.3,159.5,104.3,162.2 M101.4,155.4l-2.1,1.6l-0.6-0.4l1.7-1.8L101.4,155.4z M97.4,143.1
			c0.6,0,1.7,0.1,2.9,1v1.4c-0.3-0.3-0.8-0.7-1.3-0.9c-0.5-0.2-1.1-0.4-1.7-0.4c-2.3,0-4,1.8-4,4.1c0,2.7,2.2,4,4,4
			c0.7,0,1.3-0.2,1.8-0.5c0.6-0.3,1-0.7,1.1-0.8v1.4c-1.1,0.8-2.2,1-3,1c-2.9,0-5.1-2.2-5.1-5.1C92.2,145.3,94.5,143.1,97.4,143.1
			 M91.9,157.7h1v9h-1V157.7z M90.8,172.2h0.9v8h-0.9V172.2z M89.8,159.7c-0.3-0.3-0.7-0.6-1.2-0.8c-0.5-0.2-1-0.4-1.6-0.4
			c-2.1,0-3.6,1.7-3.6,3.8c0,2.4,2,3.7,3.6,3.7c0.6,0,1.2-0.2,1.7-0.4c0.5-0.3,0.9-0.6,1-0.8v1.2c-1,0.7-2,0.9-2.7,0.9
			c-2.7,0-4.7-2-4.7-4.6c0-2.7,2-4.7,4.7-4.7c0.5,0,1.6,0.1,2.7,0.9V159.7z M80.7,142.8l7.7,8.1v-7.7h1.1v10.3l-7.7-8.1v7.6h-1.1
			V142.8z M72.8,143.3h5.1v1h-4v2.9h3.9v1h-3.9v3.8h4v1h-5.1V143.3z M66.7,143.3h1.1v8.9h2.7v1h-3.8V143.3z M67.7,157.7l2.5,6.9
			l2.5-6.9h1.1l-3.6,9.5l-3.6-9.5H67.7z M58.8,143.3H64v1h-4v2.9h3.9v1h-3.9v3.8h4v1h-5.1V143.3z M61.4,157.5c2.6,0,4.7,2,4.7,4.7
			c0,2.7-2.1,4.7-4.7,4.7c-2.6,0-4.7-2-4.7-4.7C56.7,159.5,58.8,157.5,61.4,157.5 M53.1,143.1c0.6,0,1.7,0.1,2.9,1v1.4
			c-0.3-0.3-0.8-0.7-1.3-0.9c-0.5-0.2-1.1-0.4-1.7-0.4c-2.3,0-4,1.8-4,4.1c0,2.7,2.2,4,4,4c0.7,0,1.3-0.2,1.8-0.5
			c0.6-0.3,1-0.7,1.1-0.8v1.4c-1.1,0.8-2.2,1-3,1c-2.9,0-5.1-2.2-5.1-5.1C48,145.3,50.2,143.1,53.1,143.1 M46.6,157.3l7,7.4v-7h1
			v9.4l-7-7.4v7h-1V157.3z M39.8,143.3h1.2l2,3.7l2.1-3.7h1.2l-2.7,4.8l2.9,5.1h-1.2l-2.3-4.1l-2.3,4.1h-1.2l2.9-5.1L39.8,143.3z
			 M32.7,143.3h5.1v1h-4v2.9h3.9v1h-3.9v3.8h4v1h-5.1V143.3z M32.6,157.7h1v9h-1V157.7z M35.8,177c-0.2-0.2-0.5-0.4-1-0.6l-0.7-0.3
			c-0.3-0.1-0.7-0.3-1.1-0.7c-0.3-0.3-0.6-0.7-0.6-1.3c0-1.2,1-2.1,2.3-2.1c0.5,0,0.9,0.1,1.3,0.4c0.3,0.2,0.6,0.5,0.8,0.9l-0.7,0.5
			c-0.1-0.2-0.3-0.5-0.5-0.6c-0.2-0.1-0.4-0.3-0.9-0.3c-0.8,0-1.4,0.5-1.4,1.2c0,0.3,0.1,0.5,0.3,0.7c0.2,0.2,0.5,0.4,0.8,0.5
			l0.8,0.3c0.5,0.2,0.9,0.4,1.2,0.8c0.4,0.4,0.6,0.9,0.6,1.5c0,1.5-1.1,2.5-2.5,2.5c-0.5,0-1.2-0.1-1.7-0.7
			c-0.4-0.4-0.6-0.9-0.7-1.4l0.9-0.2c0.1,0.4,0.3,0.8,0.5,1c0.3,0.4,0.7,0.4,1.2,0.4c1.1,0,1.6-0.8,1.6-1.6
			C36.2,177.6,36.1,177.3,35.8,177"/>
		<path class="st1" d="M61.4,165.9c2,0,3.7-1.6,3.7-3.7c0-2.1-1.6-3.7-3.7-3.7c-2,0-3.7,1.6-3.7,3.7
			C57.7,164.3,59.4,165.9,61.4,165.9"/>
		<path class="st1" d="M50.6,211c0.2,0.6,0.6,1.2,1,1.6c0.4,0.4,1,0.7,1.8,0.7s1.3-0.2,1.8-0.7c0.4-0.4,0.8-1,1-1.6
			c0.2-0.6,0.4-1.3,0.5-2c0.1-0.7,0.1-1.3,0.1-1.9s0-1.2-0.1-1.9c-0.1-0.7-0.2-1.4-0.5-2c-0.2-0.6-0.6-1.2-1-1.6
			c-0.4-0.4-1-0.7-1.8-0.7s-1.3,0.2-1.8,0.7c-0.4,0.4-0.8,1-1,1.6c-0.2,0.6-0.4,1.3-0.5,2c-0.1,0.7-0.1,1.3-0.1,1.9s0,1.2,0.1,1.9
			C50.2,209.7,50.3,210.4,50.6,211"/>
		<path class="st1" d="M36.7,212.4c0.3,0.3,0.6,0.5,1,0.7c0.4,0.2,0.8,0.2,1.2,0.2c0.4,0,0.9-0.1,1.2-0.2c0.4-0.2,0.7-0.4,1-0.7
			c0.3-0.3,0.5-0.6,0.7-1c0.2-0.4,0.2-0.8,0.2-1.2c0-0.4-0.1-0.9-0.2-1.2c-0.2-0.4-0.4-0.7-0.7-1c-0.3-0.3-0.6-0.5-1-0.7
			c-0.4-0.2-0.8-0.2-1.2-0.2c-0.4,0-0.9,0.1-1.2,0.2c-0.4,0.2-0.7,0.4-1,0.7c-0.3,0.3-0.5,0.6-0.7,1c-0.2,0.4-0.2,0.8-0.2,1.2
			c0,0.4,0.1,0.9,0.2,1.2C36.1,211.8,36.4,212.1,36.7,212.4"/>
		<path class="st1" d="M23.7,224.7h100v-35.4h-100V224.7z M61.9,203.6c0.2-1,0.5-1.8,0.9-2.4c0.4-0.7,0.8-1.2,1.2-1.6
			c0.5-0.4,0.9-0.7,1.4-0.9c0.5-0.2,0.9-0.3,1.3-0.4c0.4-0.1,0.8-0.1,1.1-0.1c0.3,0,0.7,0,1.1,0.1c0.4,0.1,0.9,0.2,1.3,0.4
			c0.5,0.2,0.9,0.5,1.4,0.9c0.4,0.4,0.9,0.9,1.2,1.6s0.6,1.5,0.9,2.4c0.2,1,0.3,2.1,0.3,3.5c0,1.4-0.1,2.5-0.3,3.5
			c-0.2,1-0.5,1.8-0.9,2.4c-0.4,0.7-0.8,1.2-1.2,1.6c-0.4,0.4-0.9,0.7-1.4,0.9c-0.5,0.2-0.9,0.3-1.3,0.4c-0.4,0.1-0.8,0.1-1.1,0.1
			c-0.3,0-0.7,0-1.1-0.1c-0.4-0.1-0.9-0.2-1.3-0.4c-0.5-0.2-0.9-0.5-1.4-0.9c-0.4-0.4-0.9-0.9-1.2-1.6c-0.4-0.7-0.6-1.5-0.9-2.4
			c-0.2-1-0.3-2.1-0.3-3.5C61.5,205.8,61.7,204.6,61.9,203.6 M47.4,203.6c0.2-1,0.5-1.8,0.9-2.4c0.4-0.7,0.8-1.2,1.2-1.6
			c0.5-0.4,0.9-0.7,1.4-0.9s0.9-0.3,1.3-0.4c0.4-0.1,0.8-0.1,1.1-0.1c0.3,0,0.7,0,1.1,0.1c0.4,0.1,0.9,0.2,1.3,0.4
			c0.5,0.2,0.9,0.5,1.4,0.9c0.4,0.4,0.9,0.9,1.2,1.6s0.6,1.5,0.9,2.4c0.2,1,0.3,2.1,0.3,3.5c0,1.4-0.1,2.5-0.3,3.5
			c-0.2,1-0.5,1.8-0.9,2.4c-0.4,0.7-0.8,1.2-1.2,1.6c-0.4,0.4-0.9,0.7-1.4,0.9c-0.5,0.2-0.9,0.3-1.3,0.4c-0.4,0.1-0.8,0.1-1.1,0.1
			c-0.3,0-0.7,0-1.1-0.1c-0.4-0.1-0.9-0.2-1.3-0.4s-0.9-0.5-1.4-0.9c-0.4-0.4-0.9-0.9-1.2-1.6c-0.4-0.7-0.6-1.5-0.9-2.4
			c-0.2-1-0.3-2.1-0.3-3.5C47.1,205.8,47.2,204.6,47.4,203.6 M33.1,207.7c0.3-0.7,0.7-1.5,1.2-2.3l4.4-7h3.6l-4.2,6.4l0,0
			c0.2-0.1,0.4-0.2,0.7-0.2c0.3,0,0.6-0.1,0.9-0.1c0.8,0,1.5,0.1,2.1,0.4c0.6,0.3,1.2,0.7,1.7,1.2c0.5,0.5,0.8,1.1,1.1,1.8
			c0.3,0.7,0.4,1.4,0.4,2.1c0,0.9-0.2,1.7-0.5,2.4c-0.3,0.7-0.7,1.4-1.3,1.9s-1.2,0.9-2,1.2c-0.8,0.3-1.6,0.4-2.5,0.4
			c-0.9,0-1.7-0.1-2.5-0.4s-1.4-0.7-1.9-1.2c-0.5-0.5-1-1.1-1.3-1.9c-0.3-0.7-0.5-1.6-0.5-2.5S32.8,208.5,33.1,207.7"/>
		<path class="st1" d="M65.1,211c0.2,0.6,0.6,1.2,1,1.6c0.4,0.4,1,0.7,1.8,0.7s1.3-0.2,1.8-0.7c0.4-0.4,0.8-1,1-1.6
			c0.2-0.6,0.4-1.3,0.5-2c0.1-0.7,0.1-1.3,0.1-1.9s0-1.2-0.1-1.9c-0.1-0.7-0.2-1.4-0.5-2c-0.2-0.6-0.6-1.2-1-1.6
			c-0.4-0.4-1-0.7-1.8-0.7s-1.3,0.2-1.8,0.7c-0.4,0.4-0.8,1-1,1.6c-0.2,0.6-0.4,1.3-0.5,2c-0.1,0.7-0.1,1.3-0.1,1.9s0,1.2,0.1,1.9
			C64.7,209.7,64.8,210.4,65.1,211"/>
		<polygon class="st0" points="97.8,105.5 60.4,105.5 60.4,85.7 96,85.7 96,73.8 60.4,73.8 60.4,54.1 97.8,54.1 97.8,41.2 
			45.7,41.2 45.7,118.4 97.8,118.4 		"/>
		<polygon class="st0" points="37.9,152.1 33.8,152.1 33.8,148.3 37.7,148.3 37.7,147.2 33.8,147.2 33.8,144.3 37.9,144.3 
			37.9,143.2 32.7,143.2 32.7,153.2 37.9,153.2 		"/>
		<polygon class="st0" points="40.8,153.2 43.1,149.1 45.4,153.2 46.6,153.2 43.8,148 46.5,143.2 45.2,143.2 43.1,147 41.1,143.2 
			39.8,143.2 42.5,148 39.6,153.2 		"/>
		<path class="st0" d="M53.1,153.3c0.7,0,1.9-0.2,3-1V151c-0.2,0.2-0.6,0.5-1.1,0.8c-0.5,0.3-1.2,0.5-1.8,0.5c-1.8,0-4-1.4-4-4
			c0-2.3,1.7-4.1,4-4.1c0.6,0,1.2,0.1,1.7,0.4c0.5,0.2,1,0.6,1.3,0.9v-1.4c-1.2-0.9-2.3-1-2.9-1c-3,0-5.2,2.2-5.2,5.2
			C48,151.1,50.1,153.3,53.1,153.3"/>
		<polygon class="st0" points="64,152.1 59.9,152.1 59.9,148.3 63.8,148.3 63.8,147.2 59.9,147.2 59.9,144.3 64,144.3 64,143.2 
			58.8,143.2 58.8,153.2 64,153.2 		"/>
		<polygon class="st0" points="70.5,152.1 67.8,152.1 67.8,143.2 66.7,143.2 66.7,153.2 70.5,153.2 		"/>
		<polygon class="st0" points="77.9,152.1 73.9,152.1 73.9,148.3 77.8,148.3 77.8,147.2 73.9,147.2 73.9,144.3 77.9,144.3 
			77.9,143.2 72.8,143.2 72.8,153.2 77.9,153.2 		"/>
		<polygon class="st0" points="81.8,145.5 89.5,153.6 89.5,143.2 88.4,143.2 88.4,150.9 80.7,142.8 80.7,153.2 81.8,153.2 		"/>
		<path class="st0" d="M97.4,153.3c0.7,0,1.9-0.2,3-1V151c-0.2,0.2-0.6,0.5-1.1,0.8c-0.5,0.3-1.2,0.5-1.8,0.5c-1.8,0-4-1.4-4-4
			c0-2.3,1.7-4.1,4-4.1c0.6,0,1.2,0.1,1.7,0.4c0.5,0.2,1,0.6,1.3,0.9v-1.4c-1.2-0.9-2.3-1-2.9-1c-3,0-5.2,2.2-5.2,5.2
			C92.2,151.1,94.4,153.3,97.4,153.3"/>
		<rect x="103.1" y="143.2" class="st0" width="1.1" height="9.9"/>
		<path class="st0" d="M108.8,150.4h4.2l1.2,2.8h1.2l-4.4-10.4l-4.6,10.4h1.2L108.8,150.4z M110.9,145.4l1.7,4h-3.4L110.9,145.4z"/>
		<rect x="32.6" y="157.7" class="st0" width="1" height="9"/>
		<polygon class="st0" points="44.1,157.7 43.1,157.7 43.1,164.7 36.1,157.3 36.1,166.7 37.1,166.7 37.1,159.7 44.1,167.1 		"/>
		<polygon class="st0" points="47.6,159.7 54.7,167.1 54.7,157.7 53.7,157.7 53.7,164.7 46.6,157.3 46.6,166.7 47.6,166.7 		"/>
		<path class="st0" d="M61.4,166.9c2.6,0,4.7-2,4.7-4.7c0-2.7-2.1-4.7-4.7-4.7c-2.6,0-4.7,2-4.7,4.7
			C56.7,164.9,58.8,166.9,61.4,166.9 M61.4,158.5c2,0,3.7,1.6,3.7,3.7c0,2.1-1.6,3.7-3.7,3.7c-2,0-3.7-1.6-3.7-3.7
			C57.7,160.1,59.4,158.5,61.4,158.5"/>
		<polygon class="st0" points="73.9,157.7 72.8,157.7 70.3,164.6 67.7,157.7 66.6,157.7 70.3,167.2 		"/>
		<path class="st0" d="M80.7,166.7h1.1l-4-9.4l-4.1,9.4h1.1l1.1-2.5h3.8L80.7,166.7z M76.2,163.2l1.5-3.6l1.5,3.6H76.2z"/>
		<path class="st0" d="M82.5,162.2c0,2.6,2,4.6,4.7,4.6c0.7,0,1.7-0.2,2.7-0.9v-1.2c-0.2,0.2-0.5,0.5-1,0.8
			c-0.5,0.2-1.1,0.4-1.7,0.4c-1.6,0-3.6-1.2-3.6-3.7c0-2.1,1.5-3.8,3.6-3.8c0.5,0,1.1,0.1,1.6,0.4c0.5,0.2,0.9,0.6,1.2,0.8v-1.2
			c-1.1-0.8-2.1-0.9-2.7-0.9C84.5,157.5,82.5,159.5,82.5,162.2"/>
		<rect x="91.9" y="157.7" class="st0" width="1" height="9"/>
		<path class="st0" d="M94.9,162.2c0,2.7,2.1,4.7,4.7,4.7c2.6,0,4.7-2,4.7-4.7c0-2.7-2.1-4.7-4.7-4.7S94.9,159.5,94.9,162.2
			 M103.2,162.2c0,2.1-1.6,3.7-3.7,3.7c-2,0-3.7-1.6-3.7-3.7s1.6-3.7,3.7-3.7C101.6,158.5,103.2,160.1,103.2,162.2"/>
		<polygon class="st0" points="99.3,157 101.4,155.4 100.5,154.8 98.8,156.5 		"/>
		<polygon class="st0" points="107.3,159.7 114.3,167.1 114.3,157.7 113.3,157.7 113.3,164.7 106.3,157.3 106.3,166.7 107.3,166.7 
					"/>
		<path class="st0" d="M34.6,179.5c-0.4,0-0.8-0.1-1.2-0.4c-0.2-0.2-0.4-0.6-0.5-1l-0.9,0.2c0.1,0.5,0.4,1,0.7,1.4
			c0.6,0.5,1.2,0.7,1.7,0.7c1.4,0,2.5-1,2.5-2.5c0-0.6-0.2-1-0.6-1.5c-0.3-0.3-0.8-0.6-1.2-0.8l-0.8-0.3c-0.3-0.1-0.6-0.3-0.8-0.5
			c-0.2-0.2-0.3-0.4-0.3-0.7c0-0.7,0.6-1.2,1.4-1.2c0.5,0,0.7,0.2,0.9,0.3c0.2,0.1,0.4,0.4,0.5,0.6l0.7-0.5
			c-0.2-0.4-0.5-0.7-0.8-0.9c-0.4-0.3-0.8-0.4-1.3-0.4c-1.3,0-2.3,0.8-2.3,2.1c0,0.6,0.2,1,0.6,1.3c0.4,0.3,0.8,0.5,1.1,0.7l0.7,0.3
			c0.4,0.2,0.7,0.3,1,0.6c0.3,0.3,0.4,0.6,0.4,0.9C36.2,178.7,35.7,179.5,34.6,179.5"/>
		<path class="st0" d="M42.5,172c-2.3,0-4.2,1.8-4.2,4.2c0,2.4,1.9,4.2,4.2,4.2c2.3,0,4.2-1.8,4.2-4.2C46.7,173.8,44.8,172,42.5,172
			 M42.5,179.5c-1.8,0-3.3-1.5-3.3-3.3c0-1.8,1.5-3.3,3.3-3.3c1.8,0,3.3,1.5,3.3,3.3C45.7,178.1,44.3,179.5,42.5,179.5"/>
		<path class="st0" d="M51.1,175.7l-0.8-0.3c-0.3-0.1-0.6-0.3-0.8-0.5c-0.2-0.2-0.3-0.4-0.3-0.7c0-0.7,0.6-1.2,1.4-1.2
			c0.5,0,0.7,0.2,0.9,0.3c0.2,0.1,0.4,0.4,0.5,0.6l0.7-0.5c-0.2-0.3-0.5-0.7-0.8-0.9c-0.4-0.3-0.8-0.4-1.3-0.4
			c-1.3,0-2.3,0.8-2.3,2.1c0,0.6,0.2,1,0.6,1.3c0.4,0.3,0.8,0.5,1.1,0.7l0.7,0.3c0.4,0.2,0.7,0.3,1,0.6c0.3,0.3,0.4,0.6,0.4,0.9
			c0,0.8-0.5,1.6-1.6,1.6c-0.4,0-0.8-0.1-1.2-0.4c-0.2-0.2-0.4-0.6-0.5-1l-0.9,0.2c0.1,0.5,0.3,1,0.7,1.4c0.6,0.5,1.2,0.7,1.7,0.7
			c1.4,0,2.5-1,2.5-2.5c0-0.6-0.2-1-0.6-1.5C52,176.1,51.5,175.9,51.1,175.7"/>
		<polygon class="st0" points="53.2,173 55.1,173 55.1,180.2 56,180.2 56,173 58,173 58,172.2 53.2,172.2 		"/>
		<polygon class="st0" points="59.2,180.2 63.3,180.2 63.3,179.4 60.1,179.4 60.1,176.3 63.2,176.3 63.2,175.4 60.1,175.4 60.1,173 
			63.3,173 63.3,172.2 59.2,172.2 		"/>
		<polygon class="st0" points="71.2,178.4 65,171.8 65,180.2 65.9,180.2 65.9,174 72.1,180.6 72.1,172.2 71.2,172.2 		"/>
		<rect x="74.2" y="172.2" class="st0" width="0.9" height="8"/>
		<path class="st0" d="M80.4,175.9c0.7-0.5,0.8-1.2,0.8-1.6c0-1-0.5-1.5-0.7-1.7c-0.6-0.5-1.4-0.5-1.8-0.5h-1.4v8h2
			c0.6,0,1.3,0,1.9-0.5c0.4-0.3,0.8-1,0.8-1.7C81.9,177.2,81.5,176.2,80.4,175.9 M78.1,173h0.7c0.3,0,1.6,0,1.6,1.4
			c0,1.2-1.1,1.3-1.6,1.3h-0.7V173z M80.5,179c-0.4,0.3-0.9,0.3-1.4,0.3h-1v-2.9H79c0.6,0,1.1,0.1,1.4,0.2c0.3,0.2,0.7,0.5,0.7,1.2
			C81,178.4,80.8,178.8,80.5,179"/>
		<rect x="83.5" y="172.2" class="st0" width="0.9" height="8"/>
		<polygon class="st0" points="87.4,172.2 86.5,172.2 86.5,180.2 89.6,180.2 89.6,179.4 87.4,179.4 		"/>
		<rect x="90.8" y="172.2" class="st0" width="0.9" height="8"/>
		<path class="st0" d="M98.4,173.1c-1-0.9-2.2-0.9-3-0.9h-1.6v8h1.6c1.4,0,2.2-0.3,2.9-0.9c0.6-0.5,1.4-1.4,1.4-3.1
			C99.8,174.8,99.1,173.7,98.4,173.1 M97.8,178.7c-0.8,0.7-1.7,0.7-2.3,0.7h-0.8V173h0.8c2,0,3.4,1.3,3.4,3.2
			C98.8,177.4,98.4,178.1,97.8,178.7"/>
		<path class="st0" d="M100.5,180.2h1l1-2.3h3.4l0.9,2.3h1l-3.6-8.4L100.5,180.2z M102.8,177.1l1.4-3.2l1.3,3.2H102.8z"/>
		<path class="st0" d="M113.5,173.1c-1-0.9-2.2-0.9-3-0.9h-1.6v8h1.6c1.4,0,2.2-0.3,2.9-0.9c0.6-0.5,1.4-1.4,1.4-3.1
			C114.9,174.8,114.2,173.7,113.5,173.1 M112.9,178.7c-0.8,0.7-1.7,0.7-2.3,0.7h-0.8V173h0.8c2,0,3.4,1.3,3.4,3.2
			C114,177.4,113.5,178.1,112.9,178.7"/>
		<path class="st0" d="M34.4,214.5c0.5,0.5,1.2,0.9,1.9,1.2c0.8,0.3,1.6,0.4,2.5,0.4c0.9,0,1.7-0.1,2.5-0.4c0.8-0.3,1.4-0.7,2-1.2
			c0.5-0.5,1-1.1,1.3-1.9c0.3-0.7,0.5-1.6,0.5-2.4c0-0.8-0.1-1.5-0.4-2.1c-0.3-0.7-0.6-1.3-1.1-1.8c-0.5-0.5-1-0.9-1.7-1.2
			c-0.6-0.3-1.3-0.4-2.1-0.4c-0.3,0-0.6,0-0.9,0.1c-0.3,0-0.5,0.1-0.7,0.2l0,0l4.2-6.4h-3.6l-4.4,7c-0.5,0.8-0.9,1.5-1.2,2.3
			c-0.3,0.7-0.5,1.6-0.5,2.5s0.2,1.7,0.5,2.5C33.4,213.4,33.8,214,34.4,214.5 M36,208.9c0.2-0.4,0.4-0.7,0.7-1
			c0.3-0.3,0.6-0.5,1-0.7c0.4-0.2,0.8-0.2,1.2-0.2c0.4,0,0.9,0.1,1.2,0.2c0.4,0.2,0.7,0.4,1,0.7c0.3,0.3,0.5,0.6,0.7,1
			c0.2,0.4,0.2,0.8,0.2,1.2c0,0.4-0.1,0.9-0.2,1.2c-0.2,0.4-0.4,0.7-0.7,1c-0.3,0.3-0.6,0.5-1,0.7c-0.4,0.2-0.8,0.2-1.2,0.2
			c-0.4,0-0.9-0.1-1.2-0.2c-0.4-0.2-0.7-0.4-1-0.7c-0.3-0.3-0.5-0.6-0.7-1c-0.2-0.4-0.2-0.8-0.2-1.2C35.7,209.7,35.8,209.3,36,208.9
			"/>
		<path class="st0" d="M48.3,213.1c0.4,0.7,0.8,1.2,1.2,1.6c0.5,0.4,0.9,0.7,1.4,0.9c0.5,0.2,0.9,0.3,1.3,0.4
			c0.4,0.1,0.8,0.1,1.1,0.1c0.3,0,0.7,0,1.1-0.1c0.4-0.1,0.9-0.2,1.3-0.4c0.5-0.2,0.9-0.5,1.4-0.9c0.4-0.4,0.9-0.9,1.2-1.6
			c0.4-0.7,0.6-1.5,0.9-2.4c0.2-1,0.3-2.1,0.3-3.5c0-1.4-0.1-2.5-0.3-3.5c-0.2-1-0.5-1.8-0.9-2.4c-0.4-0.7-0.8-1.2-1.2-1.6
			c-0.4-0.4-0.9-0.7-1.4-0.9c-0.5-0.2-0.9-0.3-1.3-0.4c-0.4-0.1-0.8-0.1-1.1-0.1c-0.3,0-0.7,0-1.1,0.1c-0.4,0.1-0.9,0.2-1.3,0.4
			c-0.5,0.2-0.9,0.5-1.4,0.9c-0.4,0.4-0.9,0.9-1.2,1.6c-0.4,0.7-0.6,1.5-0.9,2.4c-0.2,1-0.3,2.1-0.3,3.5c0,1.4,0.1,2.5,0.3,3.5
			C47.6,211.6,47.9,212.4,48.3,213.1 M50.1,205.3c0.1-0.7,0.2-1.4,0.5-2c0.2-0.6,0.6-1.2,1-1.6c0.4-0.4,1-0.7,1.8-0.7
			c0.7,0,1.3,0.2,1.8,0.7c0.4,0.4,0.8,1,1,1.6c0.2,0.6,0.4,1.3,0.5,2c0.1,0.7,0.1,1.3,0.1,1.9s0,1.2-0.1,1.9c-0.1,0.7-0.2,1.4-0.5,2
			c-0.2,0.6-0.6,1.2-1,1.6c-0.4,0.4-1,0.7-1.8,0.7c-0.7,0-1.3-0.2-1.8-0.7c-0.4-0.4-0.8-1-1-1.6c-0.2-0.6-0.4-1.3-0.5-2
			c-0.1-0.7-0.1-1.3-0.1-1.9S50,206,50.1,205.3"/>
		<path class="st0" d="M62.7,213.1c0.4,0.7,0.8,1.2,1.2,1.6c0.4,0.4,0.9,0.7,1.4,0.9c0.5,0.2,0.9,0.3,1.3,0.4
			c0.4,0.1,0.8,0.1,1.1,0.1c0.3,0,0.7,0,1.1-0.1c0.4-0.1,0.9-0.2,1.3-0.4c0.5-0.2,0.9-0.5,1.4-0.9c0.4-0.4,0.9-0.9,1.2-1.6
			c0.4-0.7,0.6-1.5,0.9-2.4c0.2-1,0.3-2.1,0.3-3.5c0-1.4-0.1-2.5-0.3-3.5c-0.2-1-0.5-1.8-0.9-2.4c-0.4-0.7-0.8-1.2-1.2-1.6
			c-0.4-0.4-0.9-0.7-1.4-0.9c-0.5-0.2-0.9-0.3-1.3-0.4c-0.4-0.1-0.8-0.1-1.1-0.1c-0.3,0-0.7,0-1.1,0.1c-0.4,0.1-0.9,0.2-1.3,0.4
			c-0.5,0.2-0.9,0.5-1.4,0.9c-0.4,0.4-0.9,0.9-1.2,1.6c-0.4,0.7-0.6,1.5-0.9,2.4c-0.2,1-0.3,2.1-0.3,3.5c0,1.4,0.1,2.5,0.3,3.5
			C62.1,211.6,62.4,212.4,62.7,213.1 M64.6,205.3c0.1-0.7,0.2-1.4,0.5-2c0.2-0.6,0.6-1.2,1-1.6c0.4-0.4,1-0.7,1.8-0.7
			c0.7,0,1.3,0.2,1.8,0.7c0.4,0.4,0.8,1,1,1.6c0.2,0.6,0.4,1.3,0.5,2c0.1,0.7,0.1,1.3,0.1,1.9s0,1.2-0.1,1.9c-0.1,0.7-0.2,1.4-0.5,2
			c-0.2,0.6-0.6,1.2-1,1.6c-0.4,0.4-1,0.7-1.8,0.7c-0.7,0-1.3-0.2-1.8-0.7c-0.4-0.4-0.8-1-1-1.6c-0.2-0.6-0.4-1.3-0.5-2
			c-0.1-0.7-0.1-1.3-0.1-1.9S64.5,206,64.6,205.3"/>
		<polygon class="st0" points="31,44.4 36,40.8 40.9,44.4 39,38.6 44,35 37.9,35 36,29.2 34.1,35 28,35 33,38.6 		"/>
		<polygon class="st0" points="104.1,131.3 110.9,126.4 117.7,131.3 115.1,123.3 121.9,118.4 113.5,118.4 110.9,110.4 108.3,118.4 
			99.9,118.4 106.7,123.3 		"/>
		<polygon class="st0" points="89.4,93.4 87.4,87.2 85.4,93.4 78.9,93.4 84.1,97.2 82.1,103.4 87.4,99.6 92.6,103.4 90.6,97.2 
			95.9,93.4 		"/>
		<g>
			<polygon class="st0" points="84.3,206.2 79.7,206.2 79.7,203.7 83.9,203.7 83.9,202.2 79.7,202.2 79.7,200 84.1,200 84.1,198.5 
				78,198.5 78,207.7 84.3,207.7 			"/>
			<polygon class="st0" points="87.6,203.9 91.7,203.9 91.7,202.4 87.6,202.4 87.6,200 91.9,200 91.9,198.5 86,198.5 86,207.7 
				87.6,207.7 			"/>
			<path class="st0" d="M103.3,206.4h-2.6v0c0.2-0.1,0.4-0.3,0.7-0.5c0.2-0.2,0.4-0.4,0.6-0.7c0.2-0.3,0.3-0.6,0.5-1
				c0.1-0.4,0.2-0.8,0.2-1.3c0-0.7-0.1-1.3-0.4-1.9c-0.3-0.6-0.6-1.1-1-1.5c-0.4-0.4-1-0.7-1.5-1c-0.6-0.2-1.2-0.3-1.9-0.3
				c-0.7,0-1.3,0.1-1.9,0.3c-0.6,0.2-1.1,0.6-1.5,1c-0.4,0.4-0.8,0.9-1,1.5c-0.3,0.6-0.4,1.2-0.4,1.9c0,0.7,0.1,1.4,0.4,2
				c0.3,0.6,0.6,1.1,1.1,1.5c0.4,0.4,1,0.7,1.6,0.9c0.6,0.2,1.3,0.3,2,0.3h5.4V206.4z M100,205.3c-0.3,0.3-0.6,0.5-1,0.7
				c-0.4,0.2-0.8,0.2-1.3,0.2s-0.9-0.1-1.2-0.2c-0.4-0.2-0.7-0.4-1-0.7c-0.3-0.3-0.5-0.6-0.7-1c-0.2-0.4-0.2-0.8-0.2-1.3
				c0-0.5,0.1-0.9,0.2-1.3c0.2-0.4,0.4-0.7,0.6-1c0.3-0.3,0.6-0.5,1-0.7c0.4-0.2,0.8-0.2,1.2-0.2c0.5,0,0.9,0.1,1.3,0.2
				c0.4,0.2,0.7,0.4,1,0.7c0.3,0.3,0.5,0.6,0.7,1c0.2,0.4,0.2,0.8,0.2,1.3c0,0.5-0.1,0.9-0.2,1.3C100.5,204.7,100.3,205,100,205.3z"
				/>
			<polygon class="st0" points="106.1,200.1 106.1,200.1 108.9,207.7 110.1,207.7 112.9,200.1 112.9,200.1 112.9,207.7 114.5,207.7 
				114.5,198.5 112,198.5 109.5,204.9 107.1,198.5 104.6,198.5 104.6,207.7 106.1,207.7 			"/>
			<path class="st0" d="M80.3,213.7c0.1-0.1,0.2-0.2,0.4-0.4c0.1-0.1,0.2-0.3,0.3-0.4c0.1-0.1,0.2-0.3,0.2-0.5
				c0.1-0.2,0.1-0.4,0.1-0.6c0-0.2,0-0.4-0.1-0.6c-0.1-0.2-0.2-0.3-0.4-0.4c-0.1-0.1-0.3-0.2-0.5-0.3c-0.2-0.1-0.4-0.1-0.6-0.1
				c-0.4,0-0.7,0.1-1,0.3c-0.3,0.2-0.5,0.5-0.5,0.9l0,0.1l0.7,0.1l0-0.1c0-0.2,0.1-0.4,0.3-0.5c0.2-0.1,0.3-0.2,0.6-0.2
				c0.1,0,0.2,0,0.3,0.1c0.1,0,0.2,0.1,0.3,0.2c0.1,0.1,0.1,0.1,0.2,0.2c0,0.1,0.1,0.2,0.1,0.3c0,0.1,0,0.2,0,0.3
				c0,0.1-0.1,0.2-0.1,0.3c-0.1,0.1-0.1,0.2-0.2,0.3c-0.1,0.1-0.1,0.2-0.2,0.2l-2,2l0,0v0.7h3.3v-0.7h-2.4L80.3,213.7z"/>
			<path class="st0" d="M85.1,211.5c-0.1-0.3-0.3-0.5-0.5-0.7c-0.2-0.2-0.5-0.3-0.9-0.3c-0.4,0-0.7,0.1-0.9,0.3
				c-0.2,0.2-0.4,0.4-0.5,0.7c-0.1,0.3-0.2,0.5-0.3,0.9c0,0.3-0.1,0.6-0.1,0.9c0,0.3,0,0.6,0.1,0.9c0,0.3,0.1,0.6,0.3,0.8
				c0.1,0.3,0.3,0.5,0.5,0.7c0.2,0.2,0.5,0.3,0.9,0.3c0.4,0,0.7-0.1,0.9-0.3c0.2-0.2,0.4-0.4,0.5-0.7c0.1-0.3,0.2-0.5,0.3-0.9
				c0-0.3,0.1-0.6,0.1-0.9c0-0.3,0-0.6-0.1-0.9C85.3,212,85.2,211.7,85.1,211.5z M84.7,213.8c0,0.2-0.1,0.5-0.1,0.7
				c-0.1,0.2-0.2,0.4-0.3,0.5c-0.1,0.1-0.3,0.2-0.6,0.2c-0.2,0-0.4-0.1-0.6-0.2c-0.1-0.1-0.2-0.3-0.3-0.5c-0.1-0.2-0.1-0.4-0.1-0.7
				c0-0.2,0-0.5,0-0.6c0-0.2,0-0.4,0-0.6c0-0.2,0.1-0.4,0.1-0.7c0.1-0.2,0.2-0.4,0.3-0.5c0.1-0.1,0.3-0.2,0.6-0.2
				c0.2,0,0.4,0.1,0.6,0.2c0.1,0.1,0.3,0.3,0.3,0.5c0.1,0.2,0.1,0.4,0.1,0.7c0,0.2,0,0.5,0,0.6C84.7,213.4,84.7,213.6,84.7,213.8z"
				/>
			<path class="st0" d="M88.1,213.7c0.1-0.1,0.2-0.2,0.4-0.4c0.1-0.1,0.2-0.3,0.3-0.4c0.1-0.1,0.2-0.3,0.2-0.5
				c0.1-0.2,0.1-0.4,0.1-0.6c0-0.2,0-0.4-0.1-0.6c-0.1-0.2-0.2-0.3-0.4-0.4c-0.1-0.1-0.3-0.2-0.5-0.3c-0.2-0.1-0.4-0.1-0.6-0.1
				c-0.4,0-0.7,0.1-1,0.3c-0.3,0.2-0.5,0.5-0.5,0.9l0,0.1l0.7,0.1l0-0.1c0-0.2,0.1-0.4,0.3-0.5c0.2-0.1,0.3-0.2,0.6-0.2
				c0.1,0,0.2,0,0.3,0.1c0.1,0,0.2,0.1,0.3,0.2c0.1,0.1,0.1,0.1,0.2,0.2c0,0.1,0.1,0.2,0.1,0.3c0,0.1,0,0.2,0,0.3
				c0,0.1-0.1,0.2-0.1,0.3c-0.1,0.1-0.1,0.2-0.2,0.3c-0.1,0.1-0.1,0.2-0.2,0.2l-2,2l0,0v0.7h3.3v-0.7h-2.4L88.1,213.7z"/>
			<path class="st0" d="M92,213.7c0.1-0.1,0.2-0.2,0.4-0.4c0.1-0.1,0.2-0.3,0.3-0.4c0.1-0.1,0.2-0.3,0.2-0.5
				c0.1-0.2,0.1-0.4,0.1-0.6c0-0.2,0-0.4-0.1-0.6c-0.1-0.2-0.2-0.3-0.4-0.4c-0.1-0.1-0.3-0.2-0.5-0.3c-0.2-0.1-0.4-0.1-0.6-0.1
				c-0.4,0-0.7,0.1-1,0.3c-0.3,0.2-0.5,0.5-0.5,0.9l0,0.1l0.7,0.1l0-0.1c0-0.2,0.1-0.4,0.3-0.5c0.2-0.1,0.3-0.2,0.6-0.2
				c0.1,0,0.2,0,0.3,0.1c0.1,0,0.2,0.1,0.3,0.2c0.1,0.1,0.1,0.1,0.2,0.2c0,0.1,0.1,0.2,0.1,0.3c0,0.1,0,0.2,0,0.3
				c0,0.1-0.1,0.2-0.1,0.3c-0.1,0.1-0.1,0.2-0.2,0.3c-0.1,0.1-0.1,0.2-0.2,0.2l-2,2l0,0v0.7h3.3v-0.7h-2.4L92,213.7z"/>
			<rect x="95.6" y="213.7" class="st0" width="2" height="0.7"/>
			<path class="st0" d="M102.3,213.7c0.1-0.1,0.2-0.2,0.4-0.4c0.1-0.1,0.2-0.3,0.3-0.4c0.1-0.1,0.2-0.3,0.2-0.5
				c0.1-0.2,0.1-0.4,0.1-0.6c0-0.2,0-0.4-0.1-0.6c-0.1-0.2-0.2-0.3-0.4-0.4c-0.1-0.1-0.3-0.2-0.5-0.3c-0.2-0.1-0.4-0.1-0.6-0.1
				c-0.4,0-0.7,0.1-1,0.3c-0.3,0.2-0.5,0.5-0.5,0.9l0,0.1l0.7,0.1l0-0.1c0-0.2,0.1-0.4,0.3-0.5c0.2-0.1,0.3-0.2,0.6-0.2
				c0.1,0,0.2,0,0.3,0.1c0.1,0,0.2,0.1,0.3,0.2c0.1,0.1,0.1,0.1,0.2,0.2c0,0.1,0.1,0.2,0.1,0.3c0,0.1,0,0.2,0,0.3
				c0,0.1-0.1,0.2-0.1,0.3c-0.1,0.1-0.1,0.2-0.2,0.3c-0.1,0.1-0.1,0.2-0.2,0.2l-2,2l0,0v0.7h3.3v-0.7H101L102.3,213.7z"/>
			<path class="st0" d="M107.1,211.5c-0.1-0.3-0.3-0.5-0.5-0.7c-0.2-0.2-0.5-0.3-0.9-0.3c-0.4,0-0.7,0.1-0.9,0.3
				c-0.2,0.2-0.4,0.4-0.5,0.7c-0.1,0.3-0.2,0.5-0.3,0.9c0,0.3-0.1,0.6-0.1,0.9c0,0.3,0,0.6,0.1,0.9c0,0.3,0.1,0.6,0.3,0.8
				c0.1,0.3,0.3,0.5,0.5,0.7c0.2,0.2,0.5,0.3,0.9,0.3c0.4,0,0.7-0.1,0.9-0.3c0.2-0.2,0.4-0.4,0.5-0.7c0.1-0.3,0.2-0.5,0.3-0.8
				c0-0.3,0.1-0.6,0.1-0.9c0-0.3,0-0.6-0.1-0.9C107.4,212,107.3,211.7,107.1,211.5z M106.7,213.8c0,0.2-0.1,0.5-0.1,0.7
				c-0.1,0.2-0.2,0.4-0.3,0.5c-0.1,0.1-0.3,0.2-0.6,0.2c-0.2,0-0.4-0.1-0.6-0.2c-0.1-0.1-0.3-0.3-0.3-0.5c-0.1-0.2-0.1-0.4-0.1-0.7
				c0-0.2,0-0.5,0-0.6c0-0.2,0-0.4,0-0.6c0-0.2,0.1-0.4,0.1-0.7c0.1-0.2,0.2-0.4,0.3-0.5c0.1-0.1,0.3-0.2,0.6-0.2s0.4,0.1,0.6,0.2
				c0.1,0.1,0.3,0.3,0.3,0.5c0.1,0.2,0.1,0.4,0.1,0.7c0,0.2,0,0.5,0,0.6C106.8,213.4,106.8,213.6,106.7,213.8z"/>
			<path class="st0" d="M110.2,213.7c0.1-0.1,0.2-0.2,0.4-0.4c0.1-0.1,0.2-0.3,0.3-0.4c0.1-0.1,0.2-0.3,0.2-0.5
				c0.1-0.2,0.1-0.4,0.1-0.6c0-0.2,0-0.4-0.1-0.6c-0.1-0.2-0.2-0.3-0.4-0.4c-0.1-0.1-0.3-0.2-0.5-0.3c-0.2-0.1-0.4-0.1-0.6-0.1
				c-0.4,0-0.7,0.1-1,0.3c-0.3,0.2-0.5,0.5-0.5,0.9l0,0.1l0.7,0.1l0-0.1c0-0.2,0.1-0.4,0.3-0.5c0.2-0.1,0.3-0.2,0.6-0.2
				c0.1,0,0.2,0,0.3,0.1c0.1,0,0.2,0.1,0.3,0.2c0.1,0.1,0.1,0.1,0.2,0.2c0,0.1,0.1,0.2,0.1,0.3c0,0.1,0,0.2,0,0.3
				c0,0.1-0.1,0.2-0.1,0.3c-0.1,0.1-0.1,0.2-0.2,0.3c-0.1,0.1-0.1,0.2-0.2,0.2l-2,2l0,0v0.7h3.3v-0.7h-2.4L110.2,213.7z"/>
			<path class="st0" d="M115,213.5c-0.1-0.2-0.2-0.4-0.3-0.5c-0.1-0.2-0.3-0.3-0.5-0.4c-0.3-0.1-0.6-0.2-1-0.1c-0.1,0-0.1,0-0.2,0
				l0-1.2h2v-0.7h-2.7l-0.1,2.8l0.2-0.1c0.1-0.1,0.3-0.1,0.5-0.2c0.3-0.1,0.7-0.1,0.9,0c0.1,0,0.2,0.1,0.3,0.2
				c0.1,0.1,0.2,0.2,0.2,0.3c0.1,0.1,0.1,0.3,0.1,0.4c0,0.1,0,0.3-0.1,0.4c-0.1,0.1-0.1,0.2-0.2,0.3c-0.1,0.1-0.2,0.2-0.3,0.2
				c-0.3,0.1-0.7,0.1-0.9-0.1c-0.1-0.1-0.3-0.2-0.4-0.4l0-0.1l-0.7,0.3l0,0.1c0.1,0.3,0.3,0.5,0.6,0.7c0.3,0.2,0.6,0.2,0.9,0.2
				c0.2,0,0.5,0,0.7-0.1c0.2-0.1,0.4-0.2,0.6-0.3c0.2-0.1,0.3-0.3,0.4-0.5c0.1-0.2,0.1-0.4,0.1-0.7
				C115.1,213.9,115.1,213.7,115,213.5z"/>
		</g>
	</g>
</g>
</svg>
